<svg height="422pt" viewBox="-29 0 422 422.236" width="422pt" xmlns="http://www.w3.org/2000/svg"><path d="m278.390625 303.472656 43.414063-23.421875c-4.699219-3.941406-11.460938-5.878906-16.898438-3.167969l-33.398438 18c2.15625 2.90625 3.90625 6.097657 5.199219 9.476563zm0 0"/><path d="m48.050781 397.695312c-2.699219 0-4.890625 2.191407-4.890625 4.890626 0 2.699218 2.191406 4.890624 4.890625 4.890624s4.890625-2.191406 4.890625-4.890624c-.007812-2.699219-2.191406-4.882813-4.890625-4.890626zm0 0"/><path d="m283.15625 274.972656c-7.515625-3.875-16.488281-3.664062-23.808594.566406l-.144531.082032-8.710937 4.734375c4.300781 1.222656 8.363281 3.164062 12.011718 5.746093zm0 0"/><path d="m339.910156 283.914062-55.875 30.144532-4.761718 2.511718c.027343.628907.046874 1.261719.046874 1.902344 0 3.3125-2.6875 6-6 6-.089843 0-.179687 0-.269531 0l-38.574219-1.746094c-11.242187-.507812-22.503906.015626-33.652343 1.550782-3.28125.457031-6.3125-1.835938-6.765625-5.121094-.453125-3.28125 1.839844-6.308594 5.121094-6.765625 11.871093-1.636719 23.867187-2.191406 35.839843-1.652344l31.574219 1.621094c-2.964844-12.4375-14.109375-21.191406-26.894531-21.125h-45.21875c-9.023438-.078125-17.914063-2.179687-26.019531-6.152344l-4.664063-2.351562c-23.253906-11.335938-50.894531-8.703125-71.589844 6.816406l-11.070312 9.832031c-5.214844 4.632813-11.335938 8.125-17.976563 10.257813l21.589844 70.808593 30.15625-19.066406c.089844-.058594.183594-.113281.277344-.167968 6.898437-3.867188 15.007812-4.972657 22.6875-3.082032l67.78125 12.480469c15.988281 2.855469 32.46875.574219 47.078125-6.519531l111.941406-76.855469c-6.660156-6.363281-16.664063-7.703125-24.761719-3.320313zm0 0"/><path d="m43.347656 286.234375h-43.230468l16.6875 136h68.261718zm4.703125 133.242187c-9.328125 0-16.890625-7.5625-16.890625-16.890624 0-9.328126 7.5625-16.890626 16.890625-16.890626s16.886719 7.5625 16.886719 16.890626c-.007812 9.324218-7.5625 16.878906-16.886719 16.890624zm0 0"/><path d="m152.34375 74.234375h88v88h-88zm0 0"/><path d="m271.34375 173.390625v-110.308594c0-10.960937-8.886719-19.847656-19.847656-19.847656h-110.308594c-10.960938 0-19.84375 8.886719-19.84375 19.847656v110.308594c0 10.960937 8.882812 19.84375 19.84375 19.84375h110.308594c10.960937 0 19.847656-8.882813 19.847656-19.84375zm-25 .84375h-100c-3.316406 0-6-2.683594-6-6v-100c0-3.3125 2.683594-6 6-6h100c3.3125 0 6 2.6875 6 6v100c0 3.316406-2.6875 6-6 6zm0 0"/><path d="m161.34375 29.472656v-23.472656c0-3.3125-2.6875-6-6-6-3.316406 0-6 2.6875-6 6v23.472656c0 3.3125 2.683594 6 6 6 3.3125 0 6-2.6875 6-6zm0 0"/><path d="m243.34375 29.472656v-23.472656c0-3.3125-2.6875-6-6-6-3.316406 0-6 2.6875-6 6v23.472656c0 3.3125 2.683594 6 6 6 3.3125 0 6-2.6875 6-6zm0 0"/><path d="m182.34375 29.472656v-23.472656c0-3.3125-2.6875-6-6-6-3.316406 0-6 2.6875-6 6v23.472656c0 3.3125 2.683594 6 6 6 3.3125 0 6-2.6875 6-6zm0 0"/><path d="m202.34375 29.472656v-23.472656c0-3.3125-2.6875-6-6-6-3.316406 0-6 2.6875-6 6v23.472656c0 3.3125 2.683594 6 6 6 3.3125 0 6-2.6875 6-6zm0 0"/><path d="m222.34375 29.472656v-23.472656c0-3.3125-2.6875-6-6-6-3.316406 0-6 2.6875-6 6v23.472656c0 3.3125 2.683594 6 6 6 3.3125 0 6-2.6875 6-6zm0 0"/><path d="m149.34375 207v23.472656c0 3.3125 2.683594 6 6 6 3.3125 0 6-2.6875 6-6v-23.472656c0-3.3125-2.6875-6-6-6-3.316406 0-6 2.6875-6 6zm0 0"/><path d="m231.34375 207v23.472656c0 3.3125 2.683594 6 6 6 3.3125 0 6-2.6875 6-6v-23.472656c0-3.3125-2.6875-6-6-6-3.316406 0-6 2.6875-6 6zm0 0"/><path d="m170.34375 207v23.472656c0 3.3125 2.683594 6 6 6 3.3125 0 6-2.6875 6-6v-23.472656c0-3.3125-2.6875-6-6-6-3.316406 0-6 2.6875-6 6zm0 0"/><path d="m190.34375 207v23.472656c0 3.3125 2.683594 6 6 6 3.3125 0 6-2.6875 6-6v-23.472656c0-3.3125-2.6875-6-6-6-3.316406 0-6 2.6875-6 6zm0 0"/><path d="m210.34375 207v23.472656c0 3.3125 2.683594 6 6 6 3.3125 0 6-2.6875 6-6v-23.472656c0-3.3125-2.6875-6-6-6-3.316406 0-6 2.6875-6 6zm0 0"/><path d="m285.105469 86.234375h23.472656c3.3125 0 6-2.683594 6-6 0-3.3125-2.6875-6-6-6h-23.472656c-3.3125 0-6 2.6875-6 6 0 3.316406 2.6875 6 6 6zm0 0"/><path d="m285.105469 167.234375h23.472656c3.3125 0 6-2.683594 6-6 0-3.3125-2.6875-6-6-6h-23.472656c-3.3125 0-6 2.6875-6 6 0 3.316406 2.6875 6 6 6zm0 0"/><path d="m285.105469 106.234375h23.472656c3.3125 0 6-2.683594 6-6 0-3.3125-2.6875-6-6-6h-23.472656c-3.3125 0-6 2.6875-6 6 0 3.316406 2.6875 6 6 6zm0 0"/><path d="m285.105469 126.234375h23.472656c3.3125 0 6-2.683594 6-6 0-3.3125-2.6875-6-6-6h-23.472656c-3.3125 0-6 2.6875-6 6 0 3.316406 2.6875 6 6 6zm0 0"/><path d="m285.105469 147.234375h23.472656c3.3125 0 6-2.683594 6-6 0-3.3125-2.6875-6-6-6h-23.472656c-3.3125 0-6 2.6875-6 6 0 3.316406 2.6875 6 6 6zm0 0"/><path d="m107.578125 74.234375h-23.472656c-3.3125 0-6 2.6875-6 6 0 3.316406 2.6875 6 6 6h23.472656c3.3125 0 6-2.683594 6-6 0-3.3125-2.6875-6-6-6zm0 0"/><path d="m107.578125 155.234375h-23.472656c-3.3125 0-6 2.6875-6 6 0 3.316406 2.6875 6 6 6h23.472656c3.3125 0 6-2.683594 6-6 0-3.3125-2.6875-6-6-6zm0 0"/><path d="m107.578125 94.234375h-23.472656c-3.3125 0-6 2.6875-6 6 0 3.316406 2.6875 6 6 6h23.472656c3.3125 0 6-2.683594 6-6 0-3.3125-2.6875-6-6-6zm0 0"/><path d="m107.578125 114.234375h-23.472656c-3.3125 0-6 2.6875-6 6 0 3.316406 2.6875 6 6 6h23.472656c3.3125 0 6-2.683594 6-6 0-3.3125-2.6875-6-6-6zm0 0"/><path d="m107.578125 135.234375h-23.472656c-3.3125 0-6 2.6875-6 6 0 3.316406 2.6875 6 6 6h23.472656c3.3125 0 6-2.683594 6-6 0-3.3125-2.6875-6-6-6zm0 0"/></svg>